<svg width="291" height="303" viewBox="0 0 291 303" fill="none" xmlns="http://www.w3.org/2000/svg">
<g clip-path="url(#clip0_15192_58)">
<path fill-rule="evenodd" clip-rule="evenodd" d="M143.264 0L0 50.2164L21.8864 236.707L143.252 303.013L266.554 235.822L290.376 49.3313L143.264 0ZM54.2104 230.801L143.487 35.3809L237.068 231.361L205.195 230.801L185.574 186.153H143.715H143.601H105.487L87.5639 230.241L54.2104 230.801ZM173.891 160.037L143.715 97.9889L117.171 160.037H143.498H144.967H173.891Z" fill="white"/>
<path fill-rule="evenodd" clip-rule="evenodd" d="M144.163 -0.15918L291.275 49.1721L267.464 235.764L144.163 302.842V186.153H185.574L205.195 230.801L237.068 231.361L144.163 36.7959V-0.15918ZM144.163 160.037V98.9099L173.891 160.037H144.967H144.163Z" fill="white"/>
</g>
<defs>
<clipPath id="clip0_15192_58">
<rect width="290.377" height="303.002" fill="white"/>
</clipPath>
</defs>
</svg>
