<svg width="210" height="303" viewBox="0 0 210 303" fill="none" xmlns="http://www.w3.org/2000/svg">
<path fill-rule="evenodd" clip-rule="evenodd" d="M104.043 164.142L98.0839 154.867C96.1649 151.847 94.1449 148.396 92.3269 145.053C88.9939 138.798 84.9539 130.925 83.1358 123.052C79.7018 108.601 87.9839 99.6497 95.3569 90.1593C96.4679 88.7573 97.7809 87.3553 98.993 86.0611C106.669 77.4334 117.274 67.0802 125.455 58.4525C133.838 49.717 138.787 40.1187 139.797 25.9909C140.302 18.6574 138.989 2.804 134.141 0C135.555 11.1081 135.959 18.5495 131.717 29.6577C126.869 42.5992 118.991 50.2562 109.8 57.9133C102.225 64.1684 90.0039 75.3844 83.5398 81.963C79.3988 86.169 72.2278 93.826 69.2987 101.16C64.9557 112.16 69.2987 119.278 73.9448 126.935C76.1668 130.602 78.3888 133.729 80.8128 136.964C83.5398 140.739 86.0649 143.435 88.1859 146.347C90.5089 149.475 93.3369 152.386 95.9629 155.406C97.4779 157.347 102.427 162.955 104.043 164.142Z" fill="white"/>
<path fill-rule="evenodd" clip-rule="evenodd" d="M192.909 259.047C195.838 264.116 192.909 266.273 188.97 268.214C171.093 277.165 110.795 278.783 91.9082 279.106C72.718 279.43 53.3259 278.567 34.7417 275.116C31.7117 274.577 18.4806 272.312 17.8746 268.537C17.4706 266.165 19.7936 264.439 21.0056 263.576C25.2477 260.772 33.1257 258.831 38.4788 257.753C39.9938 257.429 43.8318 256.998 44.9428 256.566C35.9538 255.164 7.47154 260.341 1.2095 269.724C-2.72953 275.655 3.83552 278.459 8.27955 279.969C24.7427 285.685 58.8809 286.871 76.9601 287.087C103.927 287.518 168.77 287.195 192.505 269.724C193.919 268.753 196.646 266.596 196.848 264.547C197.252 262.067 194.424 259.694 192.909 259.047Z" fill="white"/>
<path fill-rule="evenodd" clip-rule="evenodd" d="M115.223 175.897C118.051 174.818 126.535 167.485 128.858 165.004C131.888 161.661 136.938 155.622 137.342 148.504C137.746 142.033 133.605 133.729 131.08 129.631C123.101 116.689 116.637 109.248 127.545 94.7965C131.181 90.0512 135.12 86.2766 139.665 82.1785C145.22 77.3254 154.209 70.639 160.674 66.3251L168.047 61.2563C164.108 61.7956 153.805 66.2173 149.765 67.835C144.311 69.9919 138.049 73.3351 133.201 76.3548C116.839 86.4923 100.679 102.346 107.345 124.131C111.789 138.906 124.818 147.749 123.808 158.857C123.101 165.651 117.041 172.446 115.223 175.897Z" fill="white"/>
<path fill-rule="evenodd" clip-rule="evenodd" d="M149.395 248.263C144.345 246.214 140.608 243.842 136.063 241.038C133.437 239.42 134.447 239.528 131.114 240.391C117.479 243.95 95.3596 244.057 81.1185 243.518C77.4825 243.41 67.0794 243.087 64.9584 239.312C63.6453 236.94 65.4634 235.322 66.1704 233.92C56.7773 235.969 47.2832 244.273 60.3123 251.175C74.9574 258.94 105.864 259.048 121.923 256.028C126.468 255.166 147.274 250.097 149.395 248.263Z" fill="white"/>
<path fill-rule="evenodd" clip-rule="evenodd" d="M153.72 215.582C149.882 214.503 146.347 211.915 144.024 209.758C141.903 207.817 142.61 208.356 138.166 209.111C122.106 211.915 74.3331 216.984 60.698 210.944C58.88 210.189 56.86 209.003 56.7589 206.738C56.6579 204.042 58.678 202.64 59.587 201.238C48.5779 202.64 38.0738 213.964 52.7189 219.464C69.283 225.504 105.138 225.719 122.813 223.347C128.671 222.484 149.276 218.17 153.72 215.582Z" fill="white"/>
<path fill-rule="evenodd" clip-rule="evenodd" d="M164.85 177.078C162.729 177.186 160.002 177.833 157.881 178.264C155.457 178.695 153.134 179.019 150.609 179.342C135.863 181.499 119.602 183.333 104.855 184.196C93.3414 184.95 50.0121 186.46 43.548 179.99C43.043 177.078 46.174 175.244 48.0931 174.166C55.5671 169.96 63.4452 168.45 70.7172 166.077C60.6171 165.107 35.165 172.872 25.9739 179.019C16.0758 185.598 32.6399 188.294 38.801 189.156C75.0603 194.549 108.997 191.637 144.852 186.245C150.71 185.382 151.922 185.705 155.962 183.009C158.79 181.068 162.325 179.127 164.85 177.078Z" fill="white"/>
<path fill-rule="evenodd" clip-rule="evenodd" d="M39.376 293.778C49.4761 298.308 71.5952 301.112 83.0083 302.082C99.0674 303.484 116.743 303.161 132.903 301.974C153.709 300.357 178.454 297.876 196.735 287.954C201.078 285.582 208.956 279.866 209.663 274.474C208.35 275.121 207.239 276.415 206.027 277.278C173.707 301.004 99.8754 298.739 61.6971 295.827L39.376 293.778Z" fill="white"/>
<path fill-rule="evenodd" clip-rule="evenodd" d="M172.094 167.81C179.972 165.114 189.062 166.947 194.011 171.693C199.465 176.869 199.465 186.683 195.627 194.232C190.375 204.37 179.467 213.321 170.276 219.468C168.761 220.547 167.246 221.302 165.832 222.38C171.69 221.733 185.628 215.047 190.88 211.488C197.647 207.066 205.121 200.487 208.252 192.075C212.696 180.105 206.232 171.045 199.364 166.624C195.425 164.143 190.678 162.633 185.123 162.957C180.881 163.173 174.013 165.006 172.094 167.81Z" fill="white"/>
</svg>
