<svg width="245" height="245" viewBox="0 0 245 245" fill="none" xmlns="http://www.w3.org/2000/svg">
<path fill-rule="evenodd" clip-rule="evenodd" d="M0 122.427V244.855H122.427H244.855V122.427V0H122.427H0V122.427ZM54.1457 123.24L54.068 133.267H70.003H85.9379V178.546V223.824H97.209H108.48V178.546V133.267H124.415H140.35V123.434C140.35 117.993 140.234 113.445 140.078 113.329C139.961 113.173 120.567 113.096 97.0536 113.135L54.2623 113.251L54.1457 123.24ZM212.886 121.79C208.533 117.281 203.791 114.522 197.573 112.967C193.337 111.918 183.309 111.607 178.995 112.423C165.703 114.949 156.492 123.461 153.888 135.665C153.149 139.163 153.382 147.83 154.315 151.289C155.442 155.447 158.163 160.422 161.039 163.531C166.014 168.895 171.455 172.276 184.086 177.717C195.124 182.498 199.011 184.791 200.915 187.512C202.392 189.649 202.742 190.893 202.742 193.73C202.742 196.878 201.809 199.016 199.555 201.076C194.269 205.817 183.542 206.4 175.73 202.281C173.01 200.843 168.501 196.528 166.441 193.38L164.964 191.204L157.93 195.285C154.043 197.539 149.923 199.91 148.835 200.532C147.708 201.192 146.698 201.814 146.581 201.97C146.309 202.436 150.701 208.927 152.955 211.414C158.707 217.788 168.035 222.646 177.868 224.395C182.376 225.211 192.326 225.328 196.523 224.59C210.088 222.297 219.726 215.378 223.613 205.196C227.15 195.829 225.984 183.236 220.776 175.347C216.112 168.273 208.611 163.298 191.082 155.758C181.56 151.638 178.529 149.617 176.896 146.236C176.119 144.681 175.847 143.554 175.847 141.65C175.808 135.159 180.589 131.273 188.012 131.778C193.064 132.128 196.368 134.11 199.516 138.696C200.566 140.251 201.498 141.261 201.732 141.106C208.183 137.103 218.832 129.951 218.755 129.64C218.483 128.591 215.14 124.199 212.886 121.79Z" fill="white"/>
</svg>
